<svg width="54" height="23" viewBox="0 0 54 23" fill="none" xmlns="http://www.w3.org/2000/svg">
<path d="M0.576052 16.8C0.416052 16.8 0.280052 16.744 0.168052 16.632C0.0560518 16.52 5.17964e-05 16.384 5.17964e-05 16.224V0.576047C5.17964e-05 0.416048 0.0560518 0.280048 0.168052 0.168048C0.280052 0.0560479 0.416052 4.76837e-05 0.576052 4.76837e-05H2.80805C2.96805 4.76837e-05 3.10405 0.0560479 3.21605 0.168048C3.32805 0.280048 3.38405 0.416048 3.38405 0.576047V13.944H10.9921C11.1681 13.944 11.3121 14 11.4241 14.112C11.5361 14.224 11.5921 14.368 11.5921 14.544V16.224C11.5921 16.384 11.5361 16.52 11.4241 16.632C11.3121 16.744 11.1681 16.8 10.9921 16.8H0.576052ZM18.9664 17.04C17.6864 17.04 16.6064 16.816 15.7264 16.368C14.8624 15.92 14.1984 15.288 13.7344 14.472C13.2864 13.656 13.0304 12.704 12.9664 11.616C12.9504 11.328 12.9424 10.976 12.9424 10.56C12.9424 10.144 12.9504 9.79205 12.9664 9.50405C13.0304 8.40005 13.2944 7.44805 13.7584 6.64805C14.2384 5.83205 14.9104 5.20005 15.7744 4.75205C16.6544 4.30405 17.7184 4.08005 18.9664 4.08005C20.2144 4.08005 21.2704 4.30405 22.1344 4.75205C23.0144 5.20005 23.6864 5.83205 24.1504 6.64805C24.6304 7.44805 24.9024 8.40005 24.9664 9.50405C24.9824 9.79205 24.9904 10.144 24.9904 10.56C24.9904 10.976 24.9824 11.328 24.9664 11.616C24.9024 12.704 24.6384 13.656 24.1744 14.472C23.7264 15.288 23.0624 15.92 22.1824 16.368C21.3184 16.816 20.2464 17.04 18.9664 17.04ZM18.9664 14.664C19.8144 14.664 20.4704 14.4 20.9344 13.872C21.3984 13.328 21.6544 12.536 21.7024 11.496C21.7184 11.256 21.7264 10.944 21.7264 10.56C21.7264 10.176 21.7184 9.86405 21.7024 9.62405C21.6544 8.60005 21.3984 7.81605 20.9344 7.27205C20.4704 6.72805 19.8144 6.45605 18.9664 6.45605C18.1184 6.45605 17.4624 6.72805 16.9984 7.27205C16.5344 7.81605 16.2784 8.60005 16.2304 9.62405C16.2144 9.86405 16.2064 10.176 16.2064 10.56C16.2064 10.944 16.2144 11.256 16.2304 11.496C16.2784 12.536 16.5344 13.328 16.9984 13.872C17.4624 14.4 18.1184 14.664 18.9664 14.664ZM33.2896 22.08C32.1216 22.08 31.1616 21.928 30.4096 21.624C29.6576 21.32 29.0656 20.952 28.6336 20.52C28.2016 20.088 27.8896 19.656 27.6976 19.224C27.5216 18.808 27.4256 18.48 27.4096 18.24C27.3936 18.08 27.4416 17.936 27.5536 17.808C27.6816 17.696 27.8256 17.64 27.9856 17.64H30.0736C30.2336 17.64 30.3616 17.672 30.4576 17.736C30.5536 17.816 30.6336 17.952 30.6976 18.144C30.7936 18.352 30.9216 18.576 31.0816 18.816C31.2416 19.056 31.4816 19.256 31.8016 19.416C32.1376 19.592 32.5936 19.68 33.1696 19.68C33.7776 19.68 34.2896 19.592 34.7056 19.416C35.1216 19.24 35.4336 18.944 35.6416 18.528C35.8656 18.112 35.9776 17.536 35.9776 16.8V15.168C35.5936 15.632 35.0976 16.008 34.4896 16.296C33.8976 16.584 33.1616 16.728 32.2816 16.728C31.4176 16.728 30.6736 16.592 30.0496 16.32C29.4256 16.032 28.9056 15.64 28.4896 15.144C28.0736 14.632 27.7536 14.032 27.5296 13.344C27.3216 12.656 27.2016 11.896 27.1696 11.064C27.1536 10.632 27.1536 10.2 27.1696 9.76805C27.2016 8.96805 27.3216 8.22405 27.5296 7.53605C27.7376 6.84805 28.0496 6.24805 28.4656 5.73605C28.8976 5.20805 29.4256 4.80005 30.0496 4.51205C30.6736 4.22405 31.4176 4.08005 32.2816 4.08005C33.1936 4.08005 33.9616 4.25605 34.5856 4.60805C35.2096 4.94405 35.7216 5.36805 36.1216 5.88005V4.92005C36.1216 4.74405 36.1776 4.60005 36.2896 4.48805C36.4016 4.37605 36.5376 4.32005 36.6976 4.32005H38.6416C38.8016 4.32005 38.9376 4.37605 39.0496 4.48805C39.1616 4.60005 39.2176 4.74405 39.2176 4.92005L39.2416 16.488C39.2416 17.64 39.0256 18.632 38.5936 19.464C38.1616 20.296 37.5056 20.936 36.6256 21.384C35.7616 21.848 34.6496 22.08 33.2896 22.08ZM33.1696 14.184C33.8256 14.184 34.3536 14.04 34.7536 13.752C35.1536 13.464 35.4496 13.088 35.6416 12.624C35.8336 12.16 35.9456 11.688 35.9776 11.208C35.9936 11 36.0016 10.736 36.0016 10.416C36.0016 10.096 35.9936 9.84005 35.9776 9.64805C35.9456 9.15205 35.8336 8.68005 35.6416 8.23205C35.4496 7.76805 35.1536 7.39205 34.7536 7.10405C34.3536 6.80005 33.8256 6.64805 33.1696 6.64805C32.5136 6.64805 31.9856 6.80005 31.5856 7.10405C31.1856 7.39205 30.8976 7.77605 30.7216 8.25605C30.5616 8.73605 30.4656 9.26405 30.4336 9.84005C30.4016 10.224 30.4016 10.616 30.4336 11.016C30.4656 11.576 30.5616 12.104 30.7216 12.6C30.8976 13.08 31.1856 13.464 31.5856 13.752C31.9856 14.04 32.5136 14.184 33.1696 14.184ZM47.9586 17.04C46.6786 17.04 45.5986 16.816 44.7186 16.368C43.8546 15.92 43.1906 15.288 42.7266 14.472C42.2786 13.656 42.0226 12.704 41.9586 11.616C41.9426 11.328 41.9346 10.976 41.9346 10.56C41.9346 10.144 41.9426 9.79205 41.9586 9.50405C42.0226 8.40005 42.2866 7.44805 42.7506 6.64805C43.2306 5.83205 43.9026 5.20005 44.7666 4.75205C45.6466 4.30405 46.7106 4.08005 47.9586 4.08005C49.2066 4.08005 50.2626 4.30405 51.1266 4.75205C52.0066 5.20005 52.6786 5.83205 53.1426 6.64805C53.6226 7.44805 53.8946 8.40005 53.9586 9.50405C53.9746 9.79205 53.9826 10.144 53.9826 10.56C53.9826 10.976 53.9746 11.328 53.9586 11.616C53.8946 12.704 53.6306 13.656 53.1666 14.472C52.7186 15.288 52.0546 15.92 51.1746 16.368C50.3106 16.816 49.2386 17.04 47.9586 17.04ZM47.9586 14.664C48.8066 14.664 49.4626 14.4 49.9266 13.872C50.3906 13.328 50.6466 12.536 50.6946 11.496C50.7106 11.256 50.7186 10.944 50.7186 10.56C50.7186 10.176 50.7106 9.86405 50.6946 9.62405C50.6466 8.60005 50.3906 7.81605 49.9266 7.27205C49.4626 6.72805 48.8066 6.45605 47.9586 6.45605C47.1106 6.45605 46.4546 6.72805 45.9906 7.27205C45.5266 7.81605 45.2706 8.60005 45.2226 9.62405C45.2066 9.86405 45.1986 10.176 45.1986 10.56C45.1986 10.944 45.2066 11.256 45.2226 11.496C45.2706 12.536 45.5266 13.328 45.9906 13.872C46.4546 14.4 47.1106 14.664 47.9586 14.664Z" fill="white"/>
</svg>
